<?xml version="1.0" encoding="utf-8"?>
<!-- Generator: Adobe Illustrator 16.0.0, SVG Export Plug-In . SVG Version: 6.00 Build 0)  -->
<!DOCTYPE svg PUBLIC "-//W3C//DTD SVG 1.1//EN" "http://www.w3.org/Graphics/SVG/1.1/DTD/svg11.dtd">
<svg version="1.1" id="Layer_1" shape-rendering="geometricPrecision"
	 xmlns="http://www.w3.org/2000/svg" xmlns:xlink="http://www.w3.org/1999/xlink" x="0px" y="0px" width="80px" height="80px"
	 viewBox="41.6 -22.24 80 80" enable-background="new 41.6 -22.24 80 80" xml:space="preserve">
<g>
	<path fill="#FCB400" d="M77.35-14.652L47.71-2.388c-1.647,0.682-1.631,3.024,0.027,3.681L77.5,13.096
		c2.616,1.037,5.528,1.037,8.144,0l29.764-11.804c1.656-0.656,1.675-2.999,0.026-3.681l-29.64-12.266
		c-2.703-1.118-5.741-1.118-8.445,0"/>
	<path fill="#18BFFF" d="M84.212,19.541v29.483c0,1.404,1.414,2.362,2.72,1.847l33.164-12.872c0.757-0.3,1.254-1.032,1.254-1.847
		V6.668c0-1.403-1.415-2.363-2.717-1.847L85.465,17.695C84.709,17.995,84.212,18.728,84.212,19.541"/>
	<path fill="#F82B60" d="M76.468,21.063l-9.843,4.751l-1,0.483l-20.777,9.958c-1.316,0.633-2.998-0.325-2.998-1.79V6.792
		c0-0.53,0.271-0.987,0.635-1.332c0.149-0.148,0.319-0.276,0.504-0.376c0.496-0.298,1.204-0.378,1.806-0.14l31.507,12.484
		C77.905,18.065,78.03,20.31,76.468,21.063"/>
	<path d="M76.468,21.063l-9.843,4.751L42.486,5.461c0.149-0.148,0.319-0.276,0.504-0.376c0.496-0.298,1.204-0.378,1.806-0.14
		l31.507,12.484C77.905,18.065,78.03,20.31,76.468,21.063"/>
</g>
</svg>
