<?xml version="1.0" encoding="utf-8"?>
<!-- Generator: Adobe Illustrator 16.0.0, SVG Export Plug-In . SVG Version: 6.00 Build 0)  -->
<!DOCTYPE svg PUBLIC "-//W3C//DTD SVG 1.1//EN" "http://www.w3.org/Graphics/SVG/1.1/DTD/svg11.dtd">
<svg version="1.1" id="Layer_1" xmlns="http://www.w3.org/2000/svg" xmlns:xlink="http://www.w3.org/1999/xlink" x="0px" y="0px"
	 width="80px" height="80px" viewBox="0 0 80 80" enable-background="new 0 0 80 80" xml:space="preserve">
<g>
	<g transform="translate(-49.000000, -47.000000)">
		<g transform="translate(49.000000, 47.000000)">
			<path fill="#111111" d="M19.54,45.395v-5.381h5.109v-1.696H19.54v-3.845h5.542v-1.716H17.59v12.638H19.54z M30.653,45.629
				c2.888,0,4.982-2.131,4.982-4.947c0-2.816-2.058-4.964-4.964-4.964s-5.001,2.13-5.001,4.964
				C25.67,43.518,27.747,45.629,30.653,45.629z M30.653,43.914c-1.769,0-3.051-1.354-3.051-3.232c0-1.859,1.263-3.231,3.051-3.231
				c1.787,0,3.051,1.354,3.051,3.231C33.704,42.542,32.44,43.914,30.653,43.914z M39.06,45.395v-4.658
				c0-1.751,0.92-2.961,2.527-2.961h0.885v-1.84h-0.83c-1.336,0-2.239,0.902-2.528,1.661h-0.126v-1.643h-1.823v9.442H39.06z
				 M45.786,45.395v-5.561c0-1.391,0.938-2.348,2.131-2.348c1.191,0,2.04,0.831,2.04,2.149v5.759h1.896v-5.506
				c0-1.517,0.957-2.402,2.148-2.402c1.246,0,1.984,0.831,1.984,2.365v5.543h1.897v-6.192c0-2.04-1.372-3.485-3.448-3.485
				c-1.283,0-2.275,0.47-2.907,1.589H51.4c-0.54-0.957-1.534-1.589-2.888-1.589s-2.239,0.686-2.654,1.481h-0.126v-1.246h-1.842
				v9.442H45.786z M61.919,45.395v-4.025l1.589-1.86l3.61,5.886h2.329l-4.64-7.421l4.459-5.217h-2.4l-4.839,5.832h-0.108v-5.832
				H59.97v12.638H61.919z M71.481,34.472c0.739,0,1.264-0.487,1.264-1.209c0-0.686-0.524-1.192-1.264-1.192
				c-0.724,0-1.246,0.506-1.246,1.192C70.235,33.985,70.758,34.472,71.481,34.472z M72.419,45.395v-9.442h-1.895v9.442H72.419z
				 M79.85,45.395v-1.607h-1.281c-0.992,0-1.372-0.541-1.372-1.443v-4.839h2.744v-1.553h-2.744V33.28H75.41v2.076
				c0,0.379-0.236,0.613-0.561,0.613h-1.246v1.535h1.697v4.892c0,1.969,1.119,2.998,2.979,2.998H79.85z"/>
			
				<linearGradient id="SVGID_1_" gradientUnits="userSpaceOnUse" x1="18.0957" y1="56.8584" x2="18.7477" y2="55.852" gradientTransform="matrix(15.1181 0 0 -15.1181 -273.0591 893.9532)">
				<stop  offset="0" style="stop-color:#FF9357"/>
				<stop  offset="1" style="stop-color:#F7CE68"/>
			</linearGradient>
			<path fill="url(#SVGID_1_)" d="M15.273,45.395v2.535H7.667v-2.535H15.273z M2.595,42.858v2.536H0.06v-2.536H2.595z M5.131,40.323
				v2.535H2.595v-2.535H5.131z M7.667,37.787v2.536H5.131v-2.536H7.667z M5.131,35.251v2.536H2.595v-2.536H5.131z M2.595,32.716
				v2.535H0.06v-2.535H2.595z"/>
		</g>
	</g>
</g>
</svg>
