<svg  xmlns="http://www.w3.org/2000/svg" xmlns:xlink="http://www.w3.org/1999/xlink" x="0px" y="0px" width="80px" height="80px" viewBox="0 0 80 80" enable-background="new 0 0 80 80" xml:space="preserve">
	<polygon fill="#E44D26" points="16.819,73.574 11.662,15.722 68.338,15.722 63.176,73.565 39.965,80 "/>
	<polygon fill="#F16529" points="40,75.082 58.755,69.883 63.167,20.452 40,20.452 "/>
	<polygon fill="#EBEBEB" points="40,41.908 30.611,41.908 29.962,34.643 40,34.643 40,27.548 39.976,27.548 22.208,27.548 22.378,29.451 24.122,49.004 40,49.004 "/>
	<polygon fill="#EBEBEB" points="40,60.336 39.969,60.345 32.067,58.211 31.562,52.553 27.722,52.553 24.439,52.553 25.433,63.693 39.967,67.728 40,67.719 "/>
	<path d="M16.935,0h3.606v3.563h3.298V0h3.606v10.788h-3.606V7.176h-3.298v3.612h-3.605L16.935,0L16.935,0z"/>
	<path d="M32.187,3.578h-3.174V0h9.956v3.578h-3.176v7.21h-3.606V3.578L32.187,3.578z"/>
	<path d="M40.549,0h3.76l2.313,3.791L48.932,0h3.762v10.788h-3.592V5.441l-2.48,3.836h-0.063l-2.482-3.836v5.347h-3.527V0z"/>
	<path d="M54.487,0h3.606v7.222h5.071v3.566h-8.678V0z"/>
	<polygon fill="#FFFFFF" points="39.976,41.908 39.976,49.004 48.713,49.004 47.889,58.207 39.976,60.342 39.976,67.725 54.521,63.693 54.628,62.494 56.295,43.814 56.469,41.908 54.557,41.908 "/>
	<polygon fill="#FFFFFF" points="39.976,27.548 39.976,31.955 39.976,34.626 39.976,34.643 57.092,34.643 57.092,34.643 57.114,34.643 57.256,33.048 57.58,29.451 57.75,27.548 "/>
</svg>
