<?xml version="1.0" encoding="utf-8"?>
<!-- Generator: Adobe Illustrator 16.0.0, SVG Export Plug-In . SVG Version: 6.00 Build 0)  -->
<!DOCTYPE svg PUBLIC "-//W3C//DTD SVG 1.1//EN" "http://www.w3.org/Graphics/SVG/1.1/DTD/svg11.dtd">
<svg version="1.1" id="Layer_1" xmlns="http://www.w3.org/2000/svg" xmlns:xlink="http://www.w3.org/1999/xlink" x="0px" y="0px"
	 width="80px" height="80px" viewBox="0 0 80 80" enable-background="new 0 0 80 80" xml:space="preserve">
<path fill-rule="evenodd" clip-rule="evenodd" fill="#EED94E" d="M-0.011,79.922c0-26.619,0-53.236,0-79.854
	c0.132-0.071,0.274-0.036,0.411-0.036C26.763,0.03,53.127,0.03,79.488,0.03c0.524,0,0.468-0.054,0.468,0.466
	c0.001,26.338,0.001,52.676,0,79.013c0,0.139,0.021,0.277-0.023,0.413c-0.132,0.068-0.274,0.035-0.412,0.035
	c-26.372,0.002-52.747,0.002-79.121,0C0.263,79.958,0.121,79.993-0.011,79.922z"/>
<path fill-rule="evenodd" clip-rule="evenodd" fill="#FDFBF0" d="M79.91,79.919c0.004-0.165,0.012-0.33,0.012-0.494
	c0-26.257,0-52.516,0-78.774c0-0.114-0.007-0.229,0.001-0.341c0.012-0.183-0.072-0.25-0.247-0.24
	c-0.127,0.008-0.254,0.001-0.381,0.001c-26.245,0-52.49,0-78.736,0c-0.19,0-0.379-0.001-0.57-0.002
	C0.005,0.044-0.05-0.012,0.027-0.01c0.102,0.004,0.203,0.001,0.304,0.001c26.434,0,52.869,0,79.303-0.009
	c0.309,0,0.37,0.061,0.37,0.37c-0.009,26.435-0.008,52.869-0.013,79.304c0,0.111,0.088,0.257-0.072,0.342
	C79.869,79.977,79.867,79.95,79.91,79.919z"/>
<path fill-rule="evenodd" clip-rule="evenodd" fill="#F2E278" d="M79.91,79.919c0.003,0.026,0.007,0.053,0.009,0.079
	c-26.53,0-53.059,0-79.588-0.005c-0.112,0-0.258,0.088-0.342-0.071c26.425,0,52.851,0,79.275-0.001
	C79.479,79.921,79.695,79.919,79.91,79.919z"/>
<path fill-rule="evenodd" clip-rule="evenodd" fill="#323330" d="M61.214,73.66c-3.254-0.029-6.264-0.675-8.974-2.414
	c-1.949-1.252-3.454-2.916-4.565-4.946c-0.136-0.248-0.101-0.35,0.143-0.487c1.848-1.056,3.688-2.122,5.523-3.197
	c0.226-0.131,0.332-0.112,0.472,0.113c0.589,0.955,1.271,1.839,2.154,2.54c2.338,1.857,4.949,2.195,7.732,1.256
	c1.116-0.376,1.945-1.139,2.293-2.313c0.412-1.396-0.075-2.805-1.272-3.757c-0.72-0.572-1.537-0.978-2.363-1.366
	c-1.796-0.849-3.663-1.54-5.442-2.428c-1.469-0.733-2.855-1.59-4.052-2.726c-2.237-2.128-3.125-4.792-3.081-7.816
	c0.07-4.731,3.045-8.387,7.763-9.452c2.894-0.653,5.771-0.54,8.546,0.593c2.341,0.955,3.968,2.708,5.229,4.844
	c0.095,0.163,0.054,0.233-0.091,0.327c-1.814,1.159-3.626,2.322-5.435,3.49c-0.182,0.118-0.25,0.061-0.345-0.101
	c-0.367-0.64-0.783-1.248-1.336-1.743c-1.449-1.295-3.138-1.591-4.923-0.944c-2.542,0.922-2.416,3.992-1.182,5.262
	c0.521,0.535,1.134,0.931,1.786,1.275c1.524,0.805,3.142,1.402,4.709,2.113c1.895,0.858,3.74,1.803,5.372,3.118
	c2.337,1.886,3.542,4.343,3.721,7.321c0.127,2.111-0.147,4.149-1.204,6.022c-1.32,2.342-3.373,3.759-5.869,4.603
	C64.774,73.438,62.97,73.647,61.214,73.66z"/>
<path fill-rule="evenodd" clip-rule="evenodd" fill="#323330" d="M43.413,50.37c0,4.348,0.03,8.695-0.014,13.041
	c-0.018,1.762-0.434,3.464-1.239,5.049c-1.146,2.251-2.956,3.751-5.342,4.506c-3.056,0.966-6.142,0.979-9.188-0.048
	c-3.002-1.011-5.107-3.059-6.519-5.862c-0.102-0.201-0.08-0.293,0.117-0.412c1.878-1.125,3.753-2.259,5.623-3.4
	c0.204-0.124,0.282-0.1,0.396,0.104c0.405,0.731,0.853,1.435,1.382,2.087c1.503,1.859,3.999,1.764,5.447,1.114
	c1.108-0.496,1.523-1.496,1.73-2.608c0.119-0.637,0.145-1.284,0.145-1.931c-0.001-8.263-0.001-16.527,0-24.79
	c0-0.581-0.071-0.493,0.51-0.494c2.192-0.004,4.385,0.007,6.577-0.011c0.348-0.002,0.411,0.102,0.411,0.423
	c-0.011,4.411-0.007,8.822-0.007,13.231C43.432,50.37,43.423,50.37,43.413,50.37z"/>
</svg>
