<svg xmlns="http://www.w3.org/2000/svg" xmlns:xlink="http://www.w3.org/1999/xlink" x="0px" y="0px" width="80px" height="80px" viewBox="0 0 80 80" enable-background="new 0 0 80 80" xml:space="preserve">
	<path fill="#53BC7A" d="M44.884,66.688h29.765c0.946,0,1.874-0.246,2.692-0.714c0.819-0.469,1.499-1.145,1.972-1.955
		c0.473-0.812,0.721-1.731,0.721-2.669c0-0.937-0.25-1.857-0.724-2.668L59.32,24.369c-0.472-0.812-1.151-1.486-1.97-1.954
		c-0.818-0.469-1.746-0.715-2.692-0.715c-0.945,0-1.874,0.246-2.692,0.715c-0.818,0.468-1.497,1.142-1.971,1.954l-5.111,8.779
		L34.892,15.98c-0.472-0.812-1.152-1.485-1.97-1.955c-0.82-0.468-1.749-0.714-2.694-0.714s-1.874,0.247-2.694,0.714
		c-0.818,0.469-1.499,1.143-1.97,1.955L0.69,58.683c-0.473,0.811-0.723,1.731-0.723,2.668c0,0.938,0.248,1.857,0.721,2.669
		c0.473,0.811,1.152,1.486,1.972,1.955c0.818,0.468,1.746,0.714,2.692,0.714h18.684c7.402,0,12.861-3.223,16.618-9.51l9.12-15.654
		l4.886-8.376l14.659,25.165H49.772L44.884,66.688z M23.73,58.303l-13.038-0.004L30.237,24.75l9.751,16.774l-6.53,11.213
		C30.964,56.816,28.131,58.303,23.73,58.303z"/>
</svg>
