<?xml version="1.0" encoding="utf-8"?>
<svg version="1.1" id="Layer_1" xmlns="http://www.w3.org/2000/svg" xmlns:xlink="http://www.w3.org/1999/xlink" x="0px" y="0px"
	 width="80px" height="80px" viewBox="0 0 80 80" enable-background="new 0 0 80 80" xml:space="preserve">
<g>
	<path fill-rule="evenodd" clip-rule="evenodd" fill="#FEC73C" d="M33.897,80c-1.021-0.387-2.113-0.317-3.167-0.497
		c-3.829-0.654-7.48-1.732-10.589-4.194c0.207-0.585,0.725-0.435,1.122-0.412c1.502,0.085,2.999,0.251,4.498,0.389
		c3.469,0.318,6.939,0.623,10.407,0.944c3.385,0.313,6.771,0.607,10.156,0.933c1.442,0.138,2.889,0.234,4.327,0.412
		c0.368,0.046,0.826,0.004,0.854,0.575c-2.556,1.018-5.245,1.401-7.957,1.681c-0.204,0.021-0.457-0.096-0.595,0.17
		c-0.391,0-0.782,0-1.174,0c-0.279-0.137-0.559-0.137-0.839,0c-1.621,0-3.242,0-4.863,0c-0.335-0.138-0.671-0.138-1.006,0
		C34.68,80,34.289,80,33.897,80z"/>
	<path fill-rule="evenodd" clip-rule="evenodd" fill="#FED351" d="M13.268,57.693c0-0.503,0-1.006,0-1.509
		c0.813-0.425,1.652-0.092,2.459-0.022c4.172,0.358,8.342,0.738,12.512,1.126c4.003,0.373,8.007,0.737,12.01,1.102
		c3.948,0.359,7.896,0.735,11.843,1.098c1.006,0.093,2.088-0.093,3.015,0.519c0.35,0.492-0.097,0.735-0.345,1.014
		c-0.266,0.3-0.537,0.623-0.989,0.656c-1.76-0.274-3.53-0.436-5.312-0.472c-0.261-0.012-0.478-0.133-0.655-0.312
		c-1.194-1.199-1.172-0.81-2.203-0.173c-0.956,0.192-1.897-0.055-2.835-0.14c-4.864-0.438-9.728-0.895-14.595-1.31
		c-2.586-0.222-5.161-0.577-7.76-0.64c-0.112-0.003-0.223-0.002-0.333,0.021c-0.4,0.014-0.791-0.053-1.179-0.144
		c-1.567-0.394-3.191-0.307-4.776-0.558C13.825,57.902,13.513,57.916,13.268,57.693z"/>
	<path fill-rule="evenodd" clip-rule="evenodd" fill="#FED554" d="M13.268,53.669c0.18-0.045,0.156-0.211,0.203-0.335
		c0.326-0.308,0.724-0.243,1.111-0.206c5.42,0.508,10.843,0.985,16.265,1.481c4.531,0.415,9.06,0.852,13.591,1.267
		c3.976,0.363,7.951,0.73,11.929,1.07c2.003,0.171,4.004,0.369,6.006,0.548c0.46,0.041,0.96,0.028,1.351,0.367
		c0.012,0.964,0.126,1.932-0.126,2.884c-0.247-1.048-1.068-1.072-1.922-1.146c-1.076-0.094-2.176-0.037-3.222-0.394
		c-0.479-0.354-0.965-0.691-1.605-0.653c-1.749-0.419-3.545-0.423-5.319-0.598c-3.361-0.332-6.727-0.618-10.091-0.923
		c-3.419-0.311-6.838-0.62-10.257-0.934c-3.335-0.306-6.671-0.605-10.007-0.908c-2.196-0.199-4.391-0.407-6.588-0.595
		c-0.477-0.04-0.956-0.041-1.317-0.424C13.268,54.004,13.268,53.836,13.268,53.669z"/>
	<path fill-rule="evenodd" clip-rule="evenodd" fill="#FED553" d="M13.268,54.172c1.822,0.168,3.644,0.327,5.465,0.506
		c2.123,0.209,4.243,0.453,6.368,0.648c2.127,0.195,4.259,0.334,6.386,0.527c2.152,0.194,4.301,0.432,6.453,0.637
		c1.408,0.135,2.819,0.237,4.229,0.366c2.29,0.211,4.579,0.438,6.87,0.646c1.437,0.131,2.877,0.226,4.313,0.364
		c1.238,0.118,2.502,0.064,3.697,0.501c-0.098,0.719-0.555,1.04-1.233,1.119c-2.292-0.362-4.61-0.47-6.916-0.693
		c-3.419-0.332-6.841-0.63-10.261-0.937c-3.393-0.305-6.786-0.613-10.178-0.923c-3.364-0.308-6.73-0.594-10.092-0.929
		c-1.609-0.161-3.235-0.17-4.822-0.532c-0.335-0.182-0.074-0.569-0.277-0.798C13.268,54.507,13.268,54.34,13.268,54.172z"/>
	<path fill-rule="evenodd" clip-rule="evenodd" fill="#FED452" d="M13.442,55.346c2.344,0.214,4.688,0.431,7.033,0.64
		c1.436,0.128,2.874,0.236,4.31,0.368c2.261,0.208,4.521,0.433,6.783,0.642c1.408,0.13,2.818,0.235,4.226,0.364
		c2.289,0.211,4.577,0.435,6.866,0.646c1.38,0.127,2.763,0.234,4.143,0.36c2.316,0.213,4.632,0.443,6.949,0.646
		c0.771,0.067,1.569-0.058,2.284,0.359c-0.016,0.541-0.298,0.816-0.835,0.839c-0.884-0.549-1.906-0.338-2.855-0.462
		c-2.142-0.28-4.31-0.354-6.463-0.552c-2.068-0.189-4.13-0.446-6.197-0.643c-1.519-0.145-3.043-0.222-4.562-0.361
		c-2.151-0.198-4.299-0.434-6.449-0.639c-1.408-0.134-2.819-0.235-4.227-0.365c-2.29-0.21-4.578-0.438-6.868-0.646
		c-1.436-0.131-2.874-0.24-4.311-0.358c0-0.168,0-0.336,0-0.504C13.384,55.6,13.316,55.422,13.442,55.346z"/>
	<path fill-rule="evenodd" clip-rule="evenodd" fill="#FED14C" d="M13.596,62.401c-0.3-0.342,0.04-0.861-0.328-1.186
		c0-0.503,0-1.007,0-1.51c0.501-0.377,1.062-0.223,1.61-0.179c1.19,0.096,2.374,0.29,3.573,0.256
		c0.235-0.036,0.463,0.023,0.61,0.195c0.739,0.863,1.591,1.629,2.226,2.581c0.081,0.122,0.098,0.257-0.01,0.382
		c-0.461,0.293-0.978,0.223-1.468,0.174c-1.832-0.185-3.665-0.349-5.499-0.495C14.055,62.6,13.817,62.53,13.596,62.401z"/>
	<path fill-rule="evenodd" clip-rule="evenodd" fill="#FED24F" d="M18.635,59.876c-0.509,0.325-1.078,0.193-1.601,0.132
		c-1.253-0.148-2.501-0.309-3.766-0.302c0-0.391,0-0.782,0-1.174c0.547-0.412,1.143-0.12,1.696-0.064
		c1.152,0.117,2.339,0.002,3.449,0.451C18.701,59.188,18.776,59.507,18.635,59.876z"/>
	<path fill-rule="evenodd" clip-rule="evenodd" fill="#FED24F" d="M18.465,59.035C16.733,58.867,15,58.7,13.268,58.532
		c0-0.279,0-0.559,0-0.839c1.651,0.116,3.303,0.222,4.952,0.359c0.259,0.021,0.549,0.088,0.75,0.309
		C18.897,58.658,18.712,58.87,18.465,59.035z"/>
	<path fill-rule="evenodd" clip-rule="evenodd" fill="#89E79A" d="M43.265,0.622c0.257-0.352,0.737-0.331,1.03-0.622
		c0.112,0,0.224,0,0.336,0c0.363,0.36,0.963,0.451,1.156,1.008C44.998,1.603,43.55,1.381,43.265,0.622z"/>
	<path fill-rule="evenodd" clip-rule="evenodd" fill="#FEDF7B" d="M13.442,55.346c-0.01,0.137-0.038,0.264-0.174,0.335
		c0-0.335,0-0.671,0-1.006C13.519,54.849,13.407,55.116,13.442,55.346z"/>
	<path fill-rule="evenodd" clip-rule="evenodd" fill="#FED36B" d="M35.071,80c0.335-0.255,0.671-0.255,1.006,0
		C35.742,80,35.407,80,35.071,80z"/>
	<path fill-rule="evenodd" clip-rule="evenodd" fill="#FED36C" d="M40.94,80c0.28-0.251,0.56-0.25,0.839,0
		C41.5,80,41.221,80,40.94,80z"/>
	<path fill-rule="evenodd" clip-rule="evenodd" fill="#FEC83F" d="M51.505,78.149c-0.651-0.648-1.523-0.363-2.276-0.464
		c-2.332-0.311-4.682-0.479-7.026-0.686c-1.52-0.134-3.042-0.22-4.56-0.359c-2.15-0.197-4.297-0.431-6.446-0.638
		c-1.352-0.131-2.704-0.258-4.058-0.359c-1.768-0.133-3.534-0.277-5.296-0.479c-0.552-0.063-1.162-0.206-1.701,0.145
		c-1.119-0.855-2.127-1.816-2.891-3.012c0.368-0.358,0.837-0.291,1.268-0.249c3.33,0.325,6.665,0.601,9.996,0.917
		s6.665,0.601,9.997,0.905c3.415,0.313,6.831,0.619,10.246,0.933c2.11,0.194,4.223,0.371,6.332,0.583
		c0.383,0.038,0.801,0.009,1.002,0.452C54.66,76.801,53.204,77.716,51.505,78.149z"/>
	<path fill-rule="evenodd" clip-rule="evenodd" fill="#FEDF64" d="M16.806,40.584c0.278-0.835,0.682-1.608,1.161-2.345
		c0.761-0.36,1.542-0.092,2.298-0.022c4.42,0.407,8.843,0.793,13.263,1.203c0.253,0.024,0.502,0.007,0.748-0.058
		c0.579-0.012,1.044,0.416,1.621,0.419c3.709,0.448,7.437,0.7,11.153,1.058c3.384,0.326,6.771,0.614,10.156,0.934
		c0.915,0.086,1.828,0.197,2.748,0.237c0.335,0.015,0.674,0.011,0.946,0.254c0.301,0.523,0.488,1.091,0.642,1.671
		c-0.376,0.17-0.774,0.109-1.155,0.071c-2.743-0.277-5.493-0.49-8.237-0.759c-0.741-0.072-1.489-0.193-2.236-0.027
		c-1.205-0.05-2.361,0.333-3.554,0.409c-0.621-0.412-1.353-0.32-2.03-0.38c-3.998-0.35-7.994-0.725-11.991-1.089
		c-3.996-0.363-7.995-0.706-11.988-1.104c-0.832-0.083-1.665-0.161-2.499-0.223C17.489,40.807,17.124,40.794,16.806,40.584z"/>
	<path fill-rule="evenodd" clip-rule="evenodd" fill="#FECA42" d="M56.092,75.838c-0.688-0.405-1.478-0.226-2.208-0.32
		c-2.144-0.277-4.313-0.36-6.468-0.555c-2.125-0.192-4.245-0.441-6.37-0.642c-1.491-0.141-2.988-0.226-4.48-0.363
		c-2.181-0.2-4.358-0.432-6.538-0.638c-1.409-0.133-2.82-0.236-4.229-0.366c-2.292-0.21-4.581-0.44-6.873-0.641
		c-0.554-0.048-1.116-0.013-1.674-0.017c-0.491-0.552-0.923-1.142-1.188-1.84c0.211-0.246,0.493-0.227,0.772-0.199
		c2.605,0.255,5.212,0.499,7.821,0.706c1.547,0.123,3.086,0.483,4.652,0.258c0.642-0.108,0.919,0.41,1.289,0.764
		c0.18,0.173,0.303,0.398,0.478,0.576c0.33,0.333,0.709,0.466,1.112,0.153c0.39-0.303,0.295-0.661,0.063-1.033
		c-0.144-0.229-0.476-0.497,0.011-0.734c0.92-0.239,1.827,0.016,2.734,0.088c2.712,0.214,5.417,0.492,8.128,0.719
		c0.276,0.023,0.549,0.087,0.812,0.181c0.473,0.176,0.493,0.914,1.09,0.914c0.561-0.001,0.791-0.546,1.195-0.811
		c0.193-0.126,0.39-0.198,0.621-0.115c0.919,0.398,1.914,0.323,2.872,0.413c2.623,0.245,5.247,0.481,7.871,0.728
		c0.416,0.039,0.992-0.039,0.963,0.68C57.812,74.538,57.061,75.315,56.092,75.838z"/>
	<path fill-rule="evenodd" clip-rule="evenodd" fill="#51A156" d="M50.993,18.659c1.011-0.629,2.036-1.229,3.183-1.588
		c0.376,0.153,0.398,0.512,0.464,0.831c1.166,5.698,2.343,11.395,3.521,17.091c0.073,0.353,0.169,0.713-0.074,1.045
		c-0.498,0.251-0.647-0.191-0.818-0.465c-1.193-1.906-2.718-3.523-4.314-5.088c-0.921-0.902-1.913-1.704-2.954-2.455
		c-0.292-0.211-0.625-0.393-0.625-0.827c0.313-1.728,0.734-3.436,0.911-5.187c0.035-0.308,0.136-0.604,0.151-0.916
		c-0.025-0.529,0.2-1.03,0.175-1.56c0.004-0.22,0.017-0.438,0.09-0.646C50.758,18.766,50.854,18.686,50.993,18.659z"/>
	<path fill-rule="evenodd" clip-rule="evenodd" fill="#FED756" d="M63.6,54.339c0.15,0.774,0.187,1.556,0.123,2.342
		c-1.315,0.287-2.612-0.045-3.909-0.152c-3.448-0.285-6.894-0.615-10.34-0.931c-3.335-0.306-6.671-0.607-10.005-0.91
		c-3.419-0.31-6.835-0.647-10.257-0.919c-1.45-0.115-2.865-0.439-4.309-0.569c-0.168-0.015-0.321-0.093-0.416-0.249
		c0.085-0.369,0.41-0.354,0.656-0.335c1.204,0.091,2.281-0.221,3.251-0.928c1.629,0.032,3.242,0.268,4.864,0.385
		c0.356,0.025,0.718,0.037,1.075-0.016c0.291-0.004,0.524,0.155,0.771,0.278c1.642,0.825,3.297,0.817,4.959,0.071
		c0.254-0.113,0.498-0.247,0.792-0.186c1.491,0.321,3.018,0.342,4.525,0.508c0.904,0.1,1.811,0.24,2.727,0.216
		c1.136,0.324,2.243,0.736,3.472,0.672c0.871-0.045,1.66-0.415,2.518-0.472c2.356,0.479,4.764,0.498,7.142,0.782
		C62.03,54.021,62.857,53.941,63.6,54.339z"/>
	<path fill-rule="evenodd" clip-rule="evenodd" fill="#FED655" d="M24.505,52.856c1.55,0.215,3.096,0.465,4.651,0.636
		c2.256,0.248,4.518,0.444,6.778,0.652c1.407,0.13,2.817,0.235,4.223,0.364c2.288,0.21,4.575,0.435,6.863,0.646
		c1.379,0.127,2.761,0.233,4.14,0.36c2.316,0.212,4.63,0.442,6.946,0.646c1.547,0.136,3.095,0.244,4.644,0.355
		c0.331,0.023,0.673-0.035,0.973,0.164c0,0.394,0,0.787,0,1.181c-2.289-0.215-4.577-0.434-6.866-0.643
		c-1.408-0.129-2.818-0.236-4.227-0.365c-2.289-0.21-4.576-0.438-6.866-0.645c-1.464-0.132-2.931-0.227-4.394-0.363
		c-2.15-0.2-4.298-0.431-6.448-0.633c-1.463-0.138-2.93-0.238-4.393-0.373c-2.234-0.205-4.465-0.446-6.7-0.632
		c-1.243-0.104-2.484-0.21-3.726-0.336c-2.207-0.223-4.421-0.363-6.632-0.538c0.057-0.506,0.115-1.013,0.172-1.519
		c0.215-0.388,0.586-0.257,0.896-0.237c2.297,0.14,4.584,0.396,6.876,0.599c0.333,0.029,0.66,0.082,0.989-0.012
		C23.147,52.262,23.897,52.344,24.505,52.856z"/>
	<path fill-rule="evenodd" clip-rule="evenodd" fill="#FEE269" d="M58.535,37.087c0.233,0.771,0.843,1.363,1.026,2.157
		c-0.457,0.388-1.013,0.283-1.521,0.237c-3.268-0.298-6.535-0.597-9.804-0.886c-1.967-0.175-3.928-0.408-5.901-0.478
		c-1.077-0.366-1.695-1.275-2.369-2.088c-0.367-0.443-0.003-0.88,0.792-1.044c1.886,0.413,3.814,0.45,5.725,0.633
		c3.437,0.327,6.874,0.638,10.313,0.935c0.364,0.031,0.721,0.057,1.078-0.033C58.317,36.45,58.477,36.711,58.535,37.087z"/>
	<path fill-rule="evenodd" clip-rule="evenodd" fill="#FEE166" d="M60.899,42.264c-2.605-0.045-5.187-0.384-7.774-0.646
		c-1.487-0.149-2.981-0.228-4.47-0.364c-2.176-0.199-4.348-0.432-6.522-0.632c-1.516-0.14-3.034-0.261-4.553-0.365
		c-0.631-0.043-1.252-0.106-1.841-0.351c-0.085-0.335,0.166-0.511,0.351-0.702c0.598-0.62,1.224-1.213,1.82-1.834
		c0.458-0.478,0.876-0.508,1.344-0.019c0.537,0.563,1.12,1.081,1.634,1.666c0.715,0.813,0.71,0.817,1.66,0.341
		c0.15-0.075,0.305-0.134,0.474-0.157c2.116,0.083,4.218,0.341,6.325,0.529c3.494,0.313,6.982,0.688,10.483,0.925
		c0.141,0.01,0.275,0.033,0.402,0.098C60.455,41.257,60.677,41.76,60.899,42.264z"/>
	<path fill-rule="evenodd" clip-rule="evenodd" fill="#FEDB5C" d="M62.869,48.796c0.168,1.006,0.338,2.012,0.506,3.019
		c-0.262,0.138-0.546,0.109-0.819,0.079c-2.104-0.232-4.217-0.361-6.32-0.598c-0.64-0.072-1.278-0.07-1.918-0.039
		c-0.805-0.132-1.584-0.348-2.312-0.728c-0.092-0.163-0.071-0.341,0.025-0.475c0.447-0.616,0.702-1.319,0.95-2.027
		c0.056-0.159,0.156-0.294,0.325-0.36c1.283-0.085,2.547,0.149,3.815,0.258c1.604,0.136,3.214,0.247,4.812,0.456
		C62.288,48.428,62.673,48.396,62.869,48.796z"/>
	<path fill-rule="evenodd" clip-rule="evenodd" fill="#FECC45" d="M58.547,73.743c-0.076-0.341-0.359-0.416-0.635-0.44
		c-2.041-0.18-4.084-0.346-6.126-0.515c-1.408-0.116-2.818-0.212-4.222-0.363c-0.332-0.036-0.739-0.08-0.922-0.477
		c0.451-1.005,1.091-1.81,2.229-2.082c2.181,0.339,4.386,0.418,6.575,0.649c1.358,0.144,2.718,0.281,4.082,0.364
		c0.341,0.021,0.667,0.089,0.881,0.399C59.976,72.241,59.308,73.027,58.547,73.743z"/>
	<path fill-rule="evenodd" clip-rule="evenodd" fill="#FEDD60" d="M62.869,48.796c-0.617-0.325-1.314-0.208-1.963-0.286
		c-2.56-0.308-5.134-0.485-7.703-0.711c-0.317-0.907-0.637-1.814-0.587-2.799c0.321-0.368,0.763-0.33,1.169-0.295
		c2.582,0.221,5.159,0.495,7.744,0.685c0.2,0.015,0.378,0.092,0.527,0.229C62.43,46.651,62.66,47.721,62.869,48.796z"/>
	<path fill-rule="evenodd" clip-rule="evenodd" fill="#FEE167" d="M60.232,40.753c-1.132,0.453-2.255-0.036-3.38-0.062
		c-1.519-0.034-3.03-0.289-4.547-0.438c-2.233-0.221-4.467-0.44-6.702-0.645c-0.939-0.086-1.884-0.133-2.825-0.197
		c-0.181-0.52-0.61-0.931-0.657-1.509c2.743,0.007,5.454,0.4,8.179,0.65c1.237,0.113,2.477,0.257,3.714,0.324
		c1.852,0.1,3.685,0.468,5.548,0.367C59.884,39.703,60.176,40.176,60.232,40.753z"/>
	<path fill-rule="evenodd" clip-rule="evenodd" fill="#FED95A" d="M54.191,51.124c0.494-0.283,1.04-0.164,1.546-0.124
		c2.447,0.198,4.89,0.447,7.333,0.685c0.105,0.011,0.204,0.085,0.305,0.13c0.158,0.834,0.253,1.674,0.225,2.524
		c-2.439-0.121-4.864-0.396-7.293-0.633c-0.778-0.076-1.551-0.108-2.292-0.376c-0.006-0.026-0.025-0.068-0.015-0.077
		C54.716,52.602,54.704,51.886,54.191,51.124z"/>
	<path fill-rule="evenodd" clip-rule="evenodd" fill="#51A557" d="M58.535,37.087c-0.157-0.186-0.315-0.371-0.473-0.557
		c-0.246-0.077-0.337-0.222-0.204-0.465c0.464-0.439,0.082-0.915-0.001-1.331c-1.161-5.79-2.358-11.572-3.55-17.355
		c-0.022-0.106-0.087-0.205-0.132-0.308c0.246-0.179,0.517-0.292,0.823-0.312c0.672-0.166,0.646,0.404,0.727,0.756
		c0.372,1.632,0.686,3.275,1.022,4.915c0.866,4.206,1.731,8.413,2.604,12.619c0.074,0.354,0.176,0.706,0.066,1.071
		C59.124,36.443,58.829,36.766,58.535,37.087z"/>
	<path fill-rule="evenodd" clip-rule="evenodd" fill="#51B35B" d="M58,15.91c0.545-0.275,1.164-0.116,1.725-0.298
		c0.267,0.284,0.29,0.657,0.364,1.009c0.948,4.535,1.82,9.087,2.835,13.607c0.061,0.271,0.132,0.544-0.007,0.814
		c-0.239,0.62-0.574,1.185-0.99,1.702c-0.578-0.315-0.578-0.926-0.688-1.449c-0.483-2.32-0.948-4.645-1.436-6.964
		C59.212,21.522,58.723,18.691,58,15.91z"/>
	<path fill-rule="evenodd" clip-rule="evenodd" fill="#FED04B" d="M62.89,65.409c-0.199,0.869-0.374,1.747-0.797,2.547
		c-2.707-0.397-5.443-0.506-8.16-0.816c-0.272-0.084-0.5-0.249-0.685-0.455c-0.299-0.334-0.896-0.64-0.581-1.148
		c0.349-0.564,0.593-1.371,1.515-1.332c0.944,0.425,1.97,0.335,2.958,0.434c1.494,0.148,2.988,0.306,4.488,0.404
		C62.063,65.07,62.525,65.095,62.89,65.409z"/>
	<path fill-rule="evenodd" clip-rule="evenodd" fill="#51B75C" d="M62.917,31.043c-0.912-3.34-1.465-6.757-2.183-10.138
		c-0.316-1.488-0.622-2.979-0.922-4.47c-0.055-0.27-0.06-0.549-0.088-0.823c0.102-0.009,0.203-0.017,0.305-0.025
		c1.188-0.162,1.337-0.082,1.562,1.008c0.786,3.817,1.543,7.641,2.37,11.45c0.07,0.323,0.131,0.658-0.041,0.977
		C63.679,29.741,63.344,30.415,62.917,31.043z"/>
	<path fill-rule="evenodd" clip-rule="evenodd" fill="#51A958" d="M59.418,36.121c-0.607-2.018-0.938-4.098-1.363-6.156
		c-0.864-4.173-1.696-8.354-2.561-12.526c-0.055-0.264-0.065-0.648-0.495-0.679c0.308-0.197,0.646-0.302,1.007-0.335
		c0.593-0.181,0.647,0.299,0.735,0.649c0.191,0.756,0.35,1.521,0.505,2.284c1.032,5.075,2.058,10.151,3.157,15.213
		c0.023,0.108,0.017,0.222,0.034,0.332C60.171,35.37,59.831,35.776,59.418,36.121z"/>
	<path fill-rule="evenodd" clip-rule="evenodd" fill="#FECD47" d="M60.41,71.279c-0.912-0.3-1.871-0.193-2.806-0.312
		c-2.334-0.294-4.685-0.462-7.029-0.682c-0.65-0.061-1.348,0.129-1.921-0.354c-0.026-0.575,0.42-0.885,0.735-1.25
		c0.419-0.485,0.896-0.92,1.355-1.369c0.392-0.383,0.755-0.429,1.127,0.035c0.562,0.699,1.25,1.277,1.855,1.935
		c0.758,0.824,0.948,0.814,1.664-0.089c0.091-0.114,0.191-0.2,0.335-0.235c1.662,0.049,3.313,0.236,4.961,0.425
		c0.259,0.03,0.657,0.011,0.542,0.495C60.956,70.346,60.683,70.813,60.41,71.279z"/>
	<path fill-rule="evenodd" clip-rule="evenodd" fill="#51AF5A" d="M58,15.91c0.579,0.166,0.457,0.704,0.539,1.096
		c1.021,4.876,2.017,9.757,3.029,14.634c0.078,0.377,0.237,0.737,0.358,1.105c-0.197,0.494-0.505,0.915-0.857,1.307
		c-0.427-0.187-0.473-0.598-0.552-0.973c-1.116-5.298-2.176-10.607-3.286-15.906c-0.074-0.356-0.138-0.715-0.03-1.076
		C57.438,15.909,57.72,15.911,58,15.91z"/>
	<path fill-rule="evenodd" clip-rule="evenodd" fill="#FEDF63" d="M62.057,45.619c-2.611-0.049-5.198-0.397-7.794-0.642
		c-0.523-0.049-1.108-0.232-1.601,0.179c-0.117,0.013-0.238-0.009-0.305-0.1c-0.594-0.816-1.431-1.304-2.312-1.735
		c-0.101-0.05-0.173-0.138-0.216-0.245c0.778-0.392,1.595-0.132,2.381-0.086c1.603,0.094,3.201,0.272,4.797,0.453
		c1.511,0.171,3.039,0.17,4.533,0.491C61.713,44.496,61.885,45.058,62.057,45.619z"/>
	<path fill-rule="evenodd" clip-rule="evenodd" fill="#60D471" d="M34.109,15.599c0.109-0.392,0.218-0.782,0.328-1.174
		c0.252-0.195,0.536-0.113,0.807-0.078c4.953,0.645,9.916,1.217,14.872,1.844c0.25,0.031,0.502,0.051,0.692,0.246
		c0.007,0.392,0.013,0.782,0.019,1.174c-0.359,0.31-0.782,0.245-1.198,0.191c-4.845-0.628-9.699-1.175-14.543-1.798
		C34.72,15.957,34.36,15.911,34.109,15.599z"/>
	<path fill-rule="evenodd" clip-rule="evenodd" fill="#5CD26D" d="M34.109,15.599c2.688,0.335,5.377,0.666,8.065,1.008
		c2.495,0.318,4.988,0.654,7.484,0.969c0.385,0.048,0.778,0.025,1.168,0.035c0.118,0.34-0.106,0.734,0.167,1.049
		c-0.049,0.046-0.098,0.091-0.146,0.136c-0.292,0.236-0.624,0.184-0.959,0.143c-4.923-0.6-9.843-1.223-14.768-1.802
		c-0.461-0.054-0.955-0.053-1.346-0.382c-0.176-0.217-0.065-0.368,0.117-0.502C33.964,16.034,34.037,15.816,34.109,15.599z"/>
	<path fill-rule="evenodd" clip-rule="evenodd" fill="#52BC5E" d="M63.92,29.021c-0.814-3.924-1.629-7.848-2.442-11.772
		c-0.034-0.162-0.066-0.326-0.079-0.491c-0.063-0.854-0.427-1.349-1.369-1.171c0.838-0.257,1.694-0.144,2.546-0.129
		c0.169,0.163,0.231,0.376,0.278,0.596c0.701,3.294,1.357,6.598,2.05,9.895c0.038,0.184,0.095,0.38,0.033,0.575
		C64.718,27.405,64.365,28.232,63.92,29.021z"/>
	<path fill-rule="evenodd" clip-rule="evenodd" fill="#51AC59" d="M57.201,16.097c0.338,1.528,0.693,3.053,1.009,4.586
		c0.865,4.194,1.711,8.394,2.573,12.588c0.056,0.269,0.188,0.521,0.286,0.781c-0.148,0.33-0.352,0.619-0.632,0.852
		c-0.697-0.908-0.642-2.038-0.861-3.074c-1.048-4.938-2.04-9.887-3.057-14.831c-0.057-0.279-0.164-0.543-0.514-0.573
		C56.38,16.229,56.771,16.091,57.201,16.097z"/>
	<path fill-rule="evenodd" clip-rule="evenodd" fill="#FED14D" d="M62.89,65.409c-2.234-0.215-4.468-0.435-6.703-0.641
		c-0.416-0.038-0.838-0.013-1.255-0.035c-0.376-0.021-0.711-0.142-0.909-0.499c0.223-0.862,1.154-1.681,1.876-1.648
		c0.78,0.353,1.628,0.308,2.447,0.378c1.434,0.125,2.862,0.318,4.303,0.371c0.223,0.009,0.443,0.045,0.604,0.229
		C63.017,64.157,63.18,64.827,62.89,65.409z"/>
	<path fill-rule="evenodd" clip-rule="evenodd" fill="#69D87A" d="M35.264,12.076c0.063-0.375,0.221-0.711,0.433-1.024
		c0.453-0.279,0.932-0.096,1.386-0.039c4.195,0.523,8.394,1.025,12.591,1.535c0.294,0.036,0.628,0.021,0.791,0.36
		c0.055,0.391,0.109,0.781,0.164,1.172c-1.368-0.01-2.707-0.291-4.059-0.442c-3.489-0.392-6.971-0.841-10.452-1.296
		C35.82,12.304,35.496,12.333,35.264,12.076z"/>
	<path fill-rule="evenodd" clip-rule="evenodd" fill="#FECE48" d="M61.229,69.879c-0.605-0.557-1.392-0.294-2.084-0.417
		c-1.188-0.212-2.405-0.252-3.609-0.364c-0.636-0.669-1.379-1.255-1.685-2.179c1.249,0.111,2.498,0.223,3.748,0.334
		c1.287,0.115,2.575,0.227,3.862,0.349c0.253,0.024,0.479,0.132,0.631,0.354C61.91,68.645,61.664,69.304,61.229,69.879z"/>
	<path fill-rule="evenodd" clip-rule="evenodd" fill="#66D778" d="M35.264,12.076c1.779,0.026,3.521,0.399,5.284,0.574
		c1.651,0.164,3.304,0.351,4.941,0.612c1.713,0.273,3.483,0.192,5.14,0.817c0.014,0.226,0.027,0.452,0.041,0.679
		c-0.3,0.292-0.669,0.235-1.027,0.193c-4.542-0.538-9.077-1.139-13.621-1.66c-0.381-0.044-0.785-0.069-1.082-0.377
		C35.048,12.636,35.156,12.356,35.264,12.076z"/>
	<path fill-rule="evenodd" clip-rule="evenodd" fill="#62D573" d="M50.808,16.437c-1.835,0.003-3.628-0.398-5.444-0.574
		c-1.649-0.161-3.295-0.376-4.937-0.605c-1.996-0.279-4.016-0.396-5.99-0.832c0.054-0.17,0.107-0.341,0.162-0.511
		c0.21-0.398,0.578-0.398,0.946-0.354c4.792,0.579,9.584,1.171,14.375,1.769c0.389,0.049,0.804,0.073,0.877,0.594
		C50.8,16.094,50.804,16.266,50.808,16.437z"/>
	<path fill-rule="evenodd" clip-rule="evenodd" fill="#64D675" d="M50.796,15.923c-0.379-0.579-1.034-0.369-1.533-0.441
		c-2.495-0.358-5.009-0.593-7.513-0.896c-2.062-0.25-4.12-0.535-6.18-0.806c-0.338-0.045-0.669-0.061-0.972,0.134
		c0.114-0.333,0.228-0.666,0.341-0.999c2.087,0.242,4.175,0.479,6.261,0.729c2.112,0.253,4.223,0.527,6.336,0.776
		c1.043,0.123,2.075,0.356,3.134,0.339C50.83,15.134,50.824,15.527,50.796,15.923z"/>
	<path fill-rule="evenodd" clip-rule="evenodd" fill="#FED24F" d="M63.252,63.564c-2.353,0.03-4.67-0.432-7.015-0.506
		c-0.33-0.011-0.514-0.173-0.539-0.506c0.217-0.797,0.938-1.457,1.707-1.563c1.671,0.251,3.356,0.345,5.035,0.492
		c0.853,0.075,1.011,0.218,0.979,0.923C63.405,62.798,63.479,63.203,63.252,63.564z"/>
	<path fill-rule="evenodd" clip-rule="evenodd" fill="#FED451" d="M63.42,62.405c0.019-0.59-0.388-0.656-0.835-0.688
		c-1.55-0.108-3.098-0.225-4.647-0.335c-0.289-0.021-0.545-0.105-0.731-0.343c-0.091-0.382,0.162-0.639,0.382-0.862
		c0.333-0.342,0.516-0.774,0.798-1.143c1.28,0.181,2.568,0.267,3.858,0.356c1.32,0.092,1.317,0.142,1.353,1.354
		C63.561,61.301,63.676,61.872,63.42,62.405z"/>
	<path fill-rule="evenodd" clip-rule="evenodd" fill="#6BDA7D" d="M50.465,12.908c-3.749-0.448-7.498-0.89-11.245-1.349
		c-1.178-0.145-2.349-0.337-3.523-0.508c0.076-0.295,0.132-0.598,0.352-0.832c0.27-0.205,0.572-0.17,0.88-0.131
		c4.196,0.529,8.4,1,12.593,1.555c0.275,0.036,0.56,0.045,0.771,0.266C50.351,12.242,50.408,12.575,50.465,12.908z"/>
	<path fill-rule="evenodd" clip-rule="evenodd" fill="#70DC81" d="M36.449,9.394c0.102-0.31,0.23-0.604,0.462-0.842
		c1.032-0.313,2.04,0.054,3.044,0.16c3.071,0.324,6.125,0.787,9.198,1.106c0.254,0.026,0.494,0.073,0.7,0.236
		c0.192,0.311,0.213,0.668,0.268,1.015c-0.3,0.294-0.668,0.232-1.025,0.186c-3.922-0.517-7.854-0.958-11.777-1.454
		C36.985,9.759,36.645,9.729,36.449,9.394z"/>
	<path fill-rule="evenodd" clip-rule="evenodd" fill="#52C05F" d="M64.937,26.523c-0.601-1.439-0.747-2.989-1.076-4.493
		c-0.438-1.993-0.85-3.992-1.264-5.991c-0.039-0.188-0.016-0.388-0.021-0.581c0.398-0.01,0.801-0.057,1.177,0.134
		c0.151,0.17,0.255,0.366,0.297,0.59c0.49,2.651,1.176,5.266,1.584,7.934c0.021,0.14,0.057,0.271-0.027,0.399
		C65.475,25.215,65.267,25.89,64.937,26.523z"/>
	<path fill-rule="evenodd" clip-rule="evenodd" fill="#72DD84" d="M49.854,10.055c-1.926,0.058-3.8-0.389-5.7-0.578
		c-1.624-0.161-3.242-0.385-4.861-0.59c-0.795-0.101-1.587-0.223-2.381-0.335c0.071-0.331,0.258-0.599,0.471-0.852
		c0.446-0.316,0.928-0.113,1.384-0.063c3.441,0.374,6.871,0.848,10.31,1.248c0.192,0.021,0.393,0.034,0.55,0.174
		C49.745,9.38,49.867,9.702,49.854,10.055z"/>
	<path fill-rule="evenodd" clip-rule="evenodd" fill="#6EDB7F" d="M36.449,9.394c1.672,0.224,3.342,0.455,5.016,0.667
		c2.059,0.261,4.119,0.509,6.18,0.753c0.824,0.098,1.651,0.172,2.478,0.256c0.057,0.28,0.114,0.56,0.172,0.84
		c-1.75-0.017-3.461-0.401-5.198-0.557c-1.622-0.145-3.233-0.411-4.85-0.616c-1.398-0.178-2.798-0.345-4.197-0.517
		C36.182,9.944,36.315,9.669,36.449,9.394z"/>
	<path fill-rule="evenodd" clip-rule="evenodd" fill="#75DE86" d="M49.625,9.059c-1.085,0.146-2.144-0.132-3.209-0.234
		c-2.086-0.201-4.161-0.511-6.241-0.774c-0.931-0.117-1.862-0.232-2.793-0.35c0.109-0.373,0.324-0.687,0.568-0.983
		c1.269-0.172,2.494,0.187,3.734,0.322c2.138,0.232,4.269,0.53,6.406,0.771c0.446,0.05,0.894,0.091,1.255,0.402
		C49.526,8.465,49.59,8.757,49.625,9.059z"/>
	<path fill-rule="evenodd" clip-rule="evenodd" fill="#7CE28E" d="M38.954,5.2c0.224-0.436,0.523-0.816,0.856-1.172
		c0.14-0.113,0.305-0.128,0.472-0.104c2.496,0.362,5.002,0.645,7.505,0.953c0.138,0.018,0.265,0.082,0.391,0.141
		c0.313,0.463,0.482,0.985,0.625,1.519c-0.644,0.231-1.271-0.009-1.898-0.081c-2.3-0.266-4.596-0.562-6.894-0.843
		C39.626,5.566,39.223,5.552,38.954,5.2z"/>
	<path fill-rule="evenodd" clip-rule="evenodd" fill="#79E08B" d="M38.954,5.2c2.688,0.336,5.378,0.65,8.061,1.022
		c0.596,0.083,1.221,0.053,1.788,0.314C48.93,6.74,49.021,6.954,49.018,7.2c-0.212,0.431-0.596,0.34-0.95,0.301
		c-2.967-0.327-5.927-0.709-8.888-1.073c-0.308-0.037-0.609-0.104-0.788-0.401C38.579,5.751,38.767,5.476,38.954,5.2z"/>
	<path fill-rule="evenodd" clip-rule="evenodd" fill="#7FE391" d="M48.178,5.019c-0.945,0.247-1.859-0.1-2.781-0.18
		c-1.682-0.146-3.351-0.427-5.024-0.658c-0.19-0.026-0.375-0.101-0.562-0.152c0.276-0.335,0.553-0.671,0.83-1.007
		c0.25-0.182,0.531-0.12,0.802-0.088c1.892,0.229,3.78,0.489,5.675,0.699c0.197,0.021,0.374,0.092,0.523,0.225
		C47.907,4.204,48.077,4.595,48.178,5.019z"/>
	<path fill-rule="evenodd" clip-rule="evenodd" fill="#77DF89" d="M38.391,6.026c1.665,0.228,3.327,0.468,4.994,0.678
		c1.613,0.203,3.233,0.355,4.844,0.577c0.294,0.041,0.536,0.058,0.789-0.081c0.197,0.309,0.307,0.646,0.327,1.012
		c-2.107-0.262-4.215-0.522-6.322-0.784c-1.479-0.183-2.957-0.373-4.436-0.545c-0.226-0.025-0.438-0.055-0.637-0.166
		C38.056,6.461,38.161,6.204,38.391,6.026z"/>
	<path fill-rule="evenodd" clip-rule="evenodd" fill="#52C360" d="M65.605,24.515c-0.738-2.949-1.352-5.924-1.854-8.923
		c0.411-0.039,0.795,0.069,1.171,0.22c0.143,0.177,0.216,0.383,0.254,0.604c0.313,1.816,0.802,3.598,1.104,5.416
		C66.198,22.762,65.954,23.651,65.605,24.515z"/>
	<path fill-rule="evenodd" clip-rule="evenodd" fill="#82E594" d="M47.641,3.857c-2.354-0.101-4.678-0.466-7.001-0.836
		c0.298-0.472,0.698-0.844,1.139-1.177c0.144-0.104,0.311-0.138,0.478-0.109c1.51,0.259,3.051,0.294,4.553,0.614
		C47.17,2.806,47.458,3.303,47.641,3.857z"/>
	<path fill-rule="evenodd" clip-rule="evenodd" fill="#53C661" d="M66.28,21.831c-0.676-1.151-0.693-2.483-0.999-3.733
		c-0.183-0.744-0.415-1.497-0.358-2.286c1.183,0.234,1.755,0.979,1.799,2.159C66.77,19.279,66.65,20.569,66.28,21.831z"/>
	<path fill-rule="evenodd" clip-rule="evenodd" fill="#86E698" d="M46.809,2.35c-0.62,0.386-1.245-0.015-1.856-0.038
		c-1.063-0.041-2.116-0.3-3.174-0.467c0.392-0.534,0.908-0.916,1.486-1.223c0.761,0.649,1.644,0.507,2.522,0.386
		C46.249,1.362,46.578,1.817,46.809,2.35z"/>
	<path fill-rule="evenodd" clip-rule="evenodd" fill="#FEE46C" d="M57.858,36.065c0.067,0.154,0.136,0.31,0.204,0.465
		c-0.127,0.308-0.378,0.396-0.681,0.364c-1.431-0.146-2.859-0.311-4.292-0.446c-1.517-0.144-3.037-0.254-4.555-0.392
		c-2.454-0.222-4.907-0.45-7.36-0.687c-0.22-0.021-0.429-0.123-0.569-0.317c-0.101-0.414,0.242-0.594,0.461-0.819
		c0.913-0.938,1.853-1.852,2.771-2.787c0.282-0.288,0.532-0.602,0.254-1.028c-0.271-0.417-0.723-0.416-1.205,0.052
		c-1.122,1.085-2.211,2.203-3.317,3.304c-0.941,0.937-1.009,0.938-1.931,0.02c-0.909-0.905-1.813-1.813-2.72-2.72
		c-0.119-0.118-0.23-0.244-0.356-0.354c-0.401-0.344-0.789-1-1.375-0.379c-0.571,0.606,0.077,0.996,0.439,1.379
		c0.574,0.607,1.179,1.187,1.769,1.779c0.296,0.297,0.552,0.627,0.779,0.979c0.114,0.176,0.179,0.354-0.04,0.51
		c-1.17,0.383-2.334,0.018-3.485-0.082c-3.474-0.3-6.947-0.602-10.417-0.944c-0.442-0.043-0.903-0.023-1.227-0.415
		c0.376-0.488,0.751-0.977,1.127-1.465c0.647-1.319,1.849-2.12,2.906-3.039c2.382-2.07,5.134-3.49,8.151-4.406
		c5.354-1.479,10.428-0.733,15.258,1.925c0.386,0.213,0.808,0.395,1.022,0.826C52.861,29.702,55.633,32.62,57.858,36.065z"/>
	<path fill-rule="evenodd" clip-rule="evenodd" fill="#FEDE61" d="M16.806,40.584c1.25-0.122,2.476,0.162,3.715,0.228
		c1.517,0.081,3.027,0.298,4.541,0.444c2.286,0.222,4.572,0.438,6.858,0.647c1.406,0.129,2.815,0.233,4.222,0.362
		c2.287,0.21,4.571,0.437,6.858,0.645c0.883,0.08,1.769,0.136,2.653,0.189c0.364,0.021,0.758-0.041,0.821,0.479
		c-0.448,0.856-1.24,1.472-1.658,2.354c-0.057,0.121-0.241,0.113-0.384,0.105c-2.9-0.361-5.817-0.545-8.724-0.833
		c-1.494-0.148-2.989-0.299-4.488-0.391c-0.426-0.082-0.621-0.434-0.857-0.74c-1.728-2.234-4.541-2.393-6.5-0.363
		c-0.231,0.239-0.428,0.529-0.832,0.438c-1.961-0.391-3.961-0.42-5.94-0.633c-0.465-0.05-0.953-0.007-1.301-0.413
		C16.015,42.218,16.377,41.388,16.806,40.584z"/>
	<path fill-rule="evenodd" clip-rule="evenodd" fill="#51A156" d="M33.071,24.85c-2.901,0.979-5.577,2.365-7.929,4.349
		c-1.066,0.898-2.034,1.895-3.012,2.884c-1.234-2.04-2.024-4.249-2.493-6.579c-0.235-0.601,0.146-0.815,0.615-0.945
		c0.78-0.216,1.579-0.352,2.372-0.514c3.144-0.644,6.282-1.313,9.43-1.933c1.05-0.206,1.141-0.124,1.256,0.938
		C33.273,23.655,33.452,24.29,33.071,24.85z"/>
	<path fill-rule="evenodd" clip-rule="evenodd" fill="#FEE269" d="M21.003,33.547c2.367,0.223,4.734,0.438,7.099,0.669
		c2.118,0.207,4.231,0.452,6.351,0.635c0.59,0.051,1.214,0.197,1.791-0.12c0.588-0.053,0.837,0.393,1.041,0.797
		c0.222,0.442-0.169,0.73-0.45,0.979c-0.506,0.446-0.833,1.152-1.64,1.189c-4.904-0.511-9.821-0.868-14.724-1.385
		c-0.413-0.044-0.846-0.043-1.138-0.418C19.826,35.065,20.343,34.256,21.003,33.547z"/>
	<path fill-rule="evenodd" clip-rule="evenodd" fill="#FEE166" d="M19.333,35.893c2.242,0.35,4.506,0.479,6.764,0.677
		c2.12,0.186,4.231,0.453,6.351,0.632c0.991,0.083,1.988,0.081,2.953,0.365c-0.08,0.751-0.862,1.119-0.997,1.84
		c-0.055,0.416-0.377,0.363-0.642,0.332c-2.477-0.294-4.962-0.48-7.448-0.681c-2.787-0.226-5.565-0.541-8.348-0.818
		C18.323,37.399,18.811,36.636,19.333,35.893z"/>
	<path fill-rule="evenodd" clip-rule="evenodd" fill="#FED95A" d="M14.147,48.814c0.22-0.897,0.44-1.795,0.661-2.692
		c0.184-0.167,0.407-0.149,0.631-0.135c2.19,0.148,4.372,0.392,6.559,0.578c0.225,0.02,0.439,0.073,0.619,0.22
		c0.358,0.861,0.778,1.697,1.126,2.564c-0.629,0.521-1.403,0.579-2.166,0.679c-1.328-0.328-2.693-0.335-4.042-0.467
		c-0.772-0.075-1.543-0.173-2.318-0.23C14.816,49.302,14.368,49.265,14.147,48.814z"/>
	<path fill-rule="evenodd" clip-rule="evenodd" fill="#FEDB5E" d="M22.623,46.961c-0.79-0.308-1.636-0.207-2.452-0.315
		c-1.779-0.235-3.574-0.355-5.362-0.523c0.245-1.033,0.515-2.059,0.981-3.02c1.82,0.168,3.641,0.334,5.461,0.505
		c0.524,0.05,1.046,0.121,1.57,0.171c0.243,0.023,0.331,0.172,0.368,0.382C23.065,45.106,23.001,46.065,22.623,46.961z"/>
	<path fill-rule="evenodd" clip-rule="evenodd" fill="#51B75C" d="M32.571,15.089c0.434,0.348,0.957,0.606,1.176,1.171
		c-0.233,0.444-0.691,0.432-1.089,0.514c-4.208,0.876-8.414,1.764-12.632,2.586c-0.481,0.094-0.912,0.245-1.235,0.628
		c-0.201-0.671-0.123-1.358-0.127-2.041c0.347-0.384,0.836-0.431,1.295-0.524c3.884-0.79,7.774-1.553,11.644-2.418
		C31.937,14.929,32.263,14.884,32.571,15.089z"/>
	<path fill-rule="evenodd" clip-rule="evenodd" fill="#FED857" d="M14.147,48.814c0.958,0.473,2.019,0.317,3.027,0.471
		c1.34,0.203,2.705,0.251,4.06,0.356c0.218,0.018,0.383,0.065,0.419,0.31c-0.362,1.172-0.362,1.172,0.627,1.986
		c0.122,0.1,0.288,0.181,0.211,0.39c-0.987,0.384-1.961-0.037-2.936-0.081c-1.972-0.09-3.928-0.458-5.912-0.431
		C13.737,50.803,13.903,49.803,14.147,48.814z"/>
	<path fill-rule="evenodd" clip-rule="evenodd" fill="#51B35B" d="M18.791,19.987c-0.045-0.468,0.129-0.64,0.633-0.739
		c4.624-0.913,9.238-1.872,13.854-2.822c0.162-0.033,0.314-0.109,0.47-0.166c0.049,0.006,0.097,0.004,0.145-0.008
		c-0.052,0.117-0.104,0.235-0.156,0.354c0.225,0.366,0.284,0.744,0.081,1.141c-0.06,0.08-0.136,0.141-0.227,0.183
		c-3.824,0.857-7.669,1.619-11.51,2.406c-0.735,0.15-1.469,0.309-2.203,0.466c-0.341,0.073-0.7,0.23-1.046-0.004
		C18.817,20.526,18.804,20.257,18.791,19.987z"/>
	<path fill-rule="evenodd" clip-rule="evenodd" fill="#52BC5D" d="M32.571,15.089c-2.062,0.417-4.125,0.828-6.185,1.252
		c-2.576,0.529-5.149,1.069-7.723,1.605c0.005-0.503,0.01-1.006,0.016-1.509c0.065-0.07,0.141-0.125,0.228-0.165
		c3.799-0.826,7.619-1.557,11.419-2.382c0.241-0.053,0.489-0.112,0.727,0.027C31.617,14.232,32.13,14.613,32.571,15.089z"/>
	<path fill-rule="evenodd" clip-rule="evenodd" fill="#51A557" d="M33.06,22.979c0.087-0.592-0.054-0.834-0.744-0.687
		c-3.986,0.854-7.98,1.675-11.975,2.486c-0.441,0.09-0.75,0.208-0.703,0.725c-0.219-0.54-0.336-1.101-0.347-1.684
		c0.221-0.353,0.6-0.379,0.95-0.45c3.964-0.802,7.923-1.631,11.885-2.442c0.393-0.081,0.816-0.276,1.191,0.077
		C33.441,21.689,33.817,22.408,33.06,22.979z"/>
	<path fill-rule="evenodd" clip-rule="evenodd" fill="#51AF5A" d="M18.831,20.797c3.77-0.783,7.539-1.566,11.309-2.349
		c1.138-0.236,2.259-0.56,3.422-0.67c0.283,0.361,0.27,0.746,0.086,1.143c-0.061,0.08-0.139,0.14-0.231,0.181
		c-4.499,0.902-8.989,1.848-13.485,2.768c-0.32,0.065-0.656,0.181-0.959-0.066C18.833,21.48,18.812,21.142,18.831,20.797z"/>
	<path fill-rule="evenodd" clip-rule="evenodd" fill="#51A958" d="M33.225,20.965c-4.645,0.951-9.289,1.903-13.934,2.854
		c-0.097-0.393-0.194-0.785-0.292-1.178c0.974-0.443,2.04-0.517,3.066-0.732c3.326-0.699,6.657-1.372,9.984-2.065
		c1.004-0.21,1.221-0.093,1.374,0.733C33.401,20.729,33.349,20.865,33.225,20.965z"/>
	<path fill-rule="evenodd" clip-rule="evenodd" fill="#51AC59" d="M33.227,20.631c0.088-0.67-0.303-0.754-0.815-0.646
		c-4.086,0.853-8.172,1.706-12.254,2.578c-0.391,0.083-0.773,0.056-1.159,0.079c-0.008-0.279-0.017-0.56-0.025-0.839
		c4.26-0.871,8.519-1.747,12.782-2.607c0.541-0.108,1.075-0.293,1.641-0.243c0.212,0.243,0.24,0.536,0.228,0.84
		C33.572,20.109,33.727,20.525,33.227,20.631z"/>
	<path fill-rule="evenodd" clip-rule="evenodd" fill="#52C05F" d="M31.052,13.918c-3.885,0.982-7.841,1.635-11.749,2.508
		c-0.159,0.035-0.333,0.007-0.5,0.008c-0.182-1.146-0.109-1.265,0.954-1.49c3.026-0.642,6.065-1.222,9.085-1.893
		c0.299-0.066,0.601-0.141,0.897,0.018C30.239,13.256,30.661,13.564,31.052,13.918z"/>
	<path fill-rule="evenodd" clip-rule="evenodd" fill="#52C661" d="M18.847,14.256c0.053-0.337,0.106-0.675,0.16-1.013
		c0.082-0.206,0.261-0.282,0.456-0.318c2.294-0.43,4.573-0.93,6.863-1.377c0.131-0.025,0.272-0.063,0.408,0.001
		c0.668,0.156,1.259,0.479,1.827,0.851c-0.339,0.385-0.823,0.453-1.278,0.543c-2.4,0.476-4.788,1.017-7.191,1.475
		C19.669,14.497,19.211,14.688,18.847,14.256z"/>
	<path fill-rule="evenodd" clip-rule="evenodd" fill="#52C360" d="M18.847,14.256c1.509,0.063,2.926-0.446,4.378-0.724
		c1.786-0.342,3.557-0.752,5.335-1.133c0.444,0.133,0.84,0.352,1.18,0.669c-3.352,0.719-6.694,1.488-10.062,2.123
		c-0.885,0.167-0.93,0.585-0.875,1.242c-0.042,0.002-0.083,0.003-0.125,0.004C18.611,15.7,18.751,14.98,18.847,14.256z"/>
	<path fill-rule="evenodd" clip-rule="evenodd" fill="#52CA62" d="M26.733,11.549c-1.93,0.688-3.968,0.9-5.951,1.358
		c-0.586,0.135-1.183,0.226-1.775,0.336c0.038-0.465,0.165-0.906,0.346-1.334c0.542-0.394,1.203-0.382,1.817-0.519
		c1.051-0.234,2.111-0.434,3.167-0.648C25.184,10.865,25.979,11.146,26.733,11.549z"/>
	<path fill-rule="evenodd" clip-rule="evenodd" fill="#52CD63" d="M24.336,10.742c-0.408,0.527-1.039,0.419-1.583,0.537
		c-1.127,0.243-2.242,0.554-3.4,0.63c0.254-1.031,0.927-1.503,1.974-1.543C22.354,10.326,23.363,10.377,24.336,10.742z"/>
	<path fill-rule="evenodd" clip-rule="evenodd" fill="#FECF49" d="M13.596,62.401c1.966-0.06,3.901,0.287,5.85,0.446
		c0.621,0.052,1.268,0.21,1.872-0.119c0.294-0.098,0.472,0.105,0.643,0.274c0.668,0.658,1.362,1.292,1.923,2.054
		c0.595,0.807,0.454,1.195-0.574,1.508c-2.754-0.462-5.544-0.554-8.314-0.841c-0.251-0.025-0.497,0.074-0.749,0.064
		C13.867,64.69,13.635,63.564,13.596,62.401z"/>
	<path fill-rule="evenodd" clip-rule="evenodd" fill="#FECD46" d="M14.248,65.788c0.13-0.297,0.366-0.406,0.676-0.374
		c2.038,0.214,4.074,0.461,6.116,0.63c0.833,0.068,1.666,0.065,2.458,0.371c0.022,0.053,0.053,0.123,0.025,0.156
		c-0.666,0.813-1.164,1.801-2.252,2.18c-1.82-0.282-3.662-0.342-5.487-0.57c-0.306-0.038-0.614-0.041-0.869-0.246
		C14.586,67.252,14.316,66.552,14.248,65.788z"/>
	<path fill-rule="evenodd" clip-rule="evenodd" fill="#FECA42" d="M29.538,71.276c-0.258,0.317-0.615,0.371-0.985,0.334
		c-2.093-0.21-4.184-0.441-6.278-0.642c-1.462-0.141-2.928-0.242-4.392-0.361c-0.606-0.05-1.213-0.101-1.82-0.15
		c-0.179-0.13-0.313-0.283-0.275-0.526c0.143-0.555,0.594-0.494,0.995-0.47c1.223,0.077,2.441,0.207,3.662,0.311
		c0.307,0.026,0.609,0.064,0.908-0.04c0.766,0.294,1.41-0.205,2.113-0.33c1.564,0.367,3.166,0.388,4.756,0.505
		C28.866,70.164,29.422,70.509,29.538,71.276z"/>
	<path fill-rule="evenodd" clip-rule="evenodd" fill="#FECB44" d="M21.486,69.771c-0.083,0.472-0.454,0.344-0.73,0.315
		c-1.377-0.137-2.751-0.309-4.128-0.445c-0.304-0.03-0.599,0.079-0.839,0.29c-0.406-0.615-0.692-1.282-0.872-1.996
		c2.201,0.107,4.399,0.237,6.569,0.66C21.591,68.986,21.593,69.378,21.486,69.771z"/>
	<path fill-rule="evenodd" clip-rule="evenodd" fill="#EBB632" d="M21.486,69.771c-0.225-0.392-0.224-0.784-0.001-1.176
		c0.671-0.727,1.343-1.453,2.014-2.18c0.664-0.368,0.724-0.704,0.162-1.323c-0.749-0.824-1.495-1.641-2.342-2.363
		c-0.667-0.72-1.347-1.428-1.992-2.167c-0.216-0.248-0.396-0.521-0.692-0.686c-0.156-0.26-0.185-0.546-0.169-0.841
		c0.021-0.335,0.235-0.525,0.505-0.674c0.344,0.003,0.695-0.031,1.004,0.175c0.932,0.514,1.505,1.421,2.296,2.089
		c0.971,0.888,1.739,1.964,2.685,2.877c0.415,0.401,0.694,0.419,1.106,0.003c0.786-0.795,1.44-1.709,2.262-2.471
		c0.294-0.297,0.59-0.593,0.889-0.885c0.385-0.377,0.824-0.615,1.352-0.346c0.525,0.269,0.766,0.713,0.621,1.317
		c-0.386,0.611-0.85,1.162-1.355,1.679c-0.471,0.447-0.927,0.912-1.38,1.378c-0.135,0.141-0.279,0.271-0.405,0.422
		c-0.849,1.007-0.849,1.007-0.064,2.047c0.575,0.656,1.22,1.243,1.834,1.861c0.56,0.575,1.139,1.132,1.697,1.709
		c0.246,0.254,0.548,0.482,0.542,0.894c0.101,0.13,0.188,0.274,0.306,0.386c0.505,0.481,0.523,0.971-0.021,1.405
		c-0.521,0.415-1.053,0.323-1.442-0.197c-0.399-0.533-0.816-1.038-1.36-1.428c-0.325-0.457-0.716-0.847-1.17-1.174
		c-0.883-0.513-1.361-1.434-2.106-2.091c-0.72-0.634-0.669-0.646-1.334,0.002c-0.509,0.496-0.905,1.126-1.596,1.419
		C22.781,69.902,22.253,70.487,21.486,69.771z"/>
	<path fill-rule="evenodd" clip-rule="evenodd" fill="#EBB632" d="M58.386,59.035c0.081,0.947-0.901,1.27-1.18,2.006
		c-0.566,0.439-1.069,0.943-1.508,1.512c-0.62,0.499-1.188,1.051-1.676,1.682c-0.549,0.281-0.737,0.895-1.18,1.276
		c-0.237,0.206-0.082,0.401,0.09,0.563c0.304,0.285,0.612,0.563,0.919,0.845c0.538,0.745,1.33,1.293,1.685,2.179
		c0.015,0.523-0.279,0.846-0.738,0.98c-0.482,0.142-0.789-0.094-1.101-0.505c-0.617-0.817-1.495-1.407-2.091-2.257
		c-0.26-0.37-0.474-0.106-0.669,0.09c-0.802,0.806-1.651,1.567-2.283,2.526c-0.736,0.606-1.407,1.277-2.012,2.016
		c-0.266,0.239-0.547,0.462-0.792,0.72c-0.302,0.317-0.626,0.6-1.078,0.407c-0.394-0.167-0.683-0.47-0.648-0.958
		c-0.205-0.273-0.018-0.479,0.146-0.652c0.38-0.402,0.667-0.881,1.067-1.265c0.638-0.609,1.254-1.241,1.874-1.868
		c0.625-0.651,1.339-1.22,1.855-1.974c0.627-0.716,0.627-0.716-0.229-1.636c-0.759-0.618-1.247-1.493-2.012-2.107
		c-0.343-0.33-0.607-0.727-0.904-1.095c-0.238-0.294-0.414-0.61-0.12-0.976c0.386-0.739,0.976-0.887,1.551-0.382
		c0.328,0.289,0.645,0.59,0.967,0.886c0.902,0.453,1.378,1.34,2.052,2.024c0.96,0.976,0.931,0.948,1.914,0.043
		c0.546-0.503,0.863-1.232,1.577-1.56c0.507-0.388,0.957-0.833,1.338-1.347c0.339-0.219,0.62-0.495,0.835-0.839
		c0.402-0.27,0.729-0.615,1.013-1.004C57.649,58.278,58.101,58.49,58.386,59.035z"/>
	<path fill-rule="evenodd" clip-rule="evenodd" fill="#FED24F" d="M45.802,60.545c-0.055,0.933,0.833,1.312,1.182,2.007
		c-0.144,0.552-0.609,0.422-0.955,0.388c-3.27-0.32-6.545-0.585-9.815-0.901c-1.414-0.138-2.832-0.23-4.242-0.399
		c-0.354-0.042-0.742-0.019-0.931-0.426c0.078-0.573-0.068-1.062-0.635-1.291c-0.54-0.22-0.858,0.185-1.192,0.519
		c-0.271,0.271-0.564,0.52-0.847,0.778c-0.617,0.185-1.212-0.074-1.816-0.112c-1.467-0.093-2.933-0.233-4.396-0.392
		c-0.792-0.66-1.512-1.394-2.179-2.179c0.217-0.261,0.518-0.178,0.784-0.166c1.775,0.075,3.539,0.271,5.304,0.467
		c1.462,0.163,2.934,0.234,4.399,0.369c2.209,0.203,4.415,0.444,6.625,0.632c1.272,0.108,2.544,0.206,3.813,0.347
		C42.527,60.364,44.167,60.43,45.802,60.545z"/>
	<path fill-rule="evenodd" clip-rule="evenodd" fill="#FED24E" d="M53.862,61.557c-0.568,0.864-1.341,1.546-2.042,2.291
		c-0.333,0.353-0.578,0.435-0.936,0.026c-0.838-0.957-1.708-1.886-2.565-2.825c0.679-0.339,1.374-0.04,2.033,0.031
		C51.523,61.209,52.743,61.046,53.862,61.557z"/>
	<path fill-rule="evenodd" clip-rule="evenodd" fill="#FEC63B" d="M34.404,39.406c-0.228-0.917,0.658-1.23,0.997-1.84
		c0.328-0.3,0.666-0.588,0.981-0.9c1.034-1.022,1.031-1.026-0.138-1.936c-1.084-1.115-2.17-2.228-3.25-3.347
		c-0.402-0.417-0.378-0.844,0.03-1.245c0.41-0.403,0.836-0.405,1.245,0c1.206,1.198,2.451,2.362,3.591,3.621
		c0.602,0.663,0.938,0.565,1.489-0.031c1.097-1.186,2.28-2.291,3.412-3.445c0.459-0.467,0.913-0.649,1.427-0.116
		c0.482,0.499,0.3,0.933-0.135,1.368c-1.158,1.163-2.299,2.344-3.447,3.518c-0.664,0.374-0.795,0.765-0.129,1.307
		c0.581,0.473,1.099,1.025,1.644,1.543c0.324,0.457,0.849,0.827,0.658,1.509c-0.98,0.769-1.167,0.725-2.018-0.237
		c-0.572-0.646-1.221-1.225-1.821-1.847c-0.25-0.26-0.448-0.255-0.695,0.003c-0.828,0.865-1.669,1.719-2.505,2.576
		C35.184,40.033,34.781,39.753,34.404,39.406z"/>
	<path fill-rule="evenodd" clip-rule="evenodd" fill="#FEFEFE" d="M44.634,45.959c0.416-0.946,1.029-1.739,1.841-2.38
		c1.071-0.479,2.186-0.681,3.355-0.503c1.169,0.388,2.133,1.053,2.832,2.08c0.339,0.849,0.602,1.713,0.541,2.643
		c-0.149,1.012-0.611,1.88-1.229,2.677c-0.54,0.984-1.495,1.248-2.494,1.386c-0.519,0.072-1.052,0.047-1.577-0.013
		c-0.391-0.079-0.762-0.218-1.122-0.388c-1.128-0.638-2.021-1.478-2.378-2.778C44.284,47.758,43.94,46.814,44.634,45.959z"/>
	<path fill-rule="evenodd" clip-rule="evenodd" fill="#FECC44" d="M45.473,70.276c-0.372,0.671-1.078,1.096-1.349,1.841
		c-2.199-0.218-4.395-0.5-6.6-0.631c-1.825-0.108-3.633-0.449-5.47-0.376c-0.783-0.839-1.566-1.677-2.35-2.516
		c0.217-0.229,0.498-0.229,0.777-0.202c3.708,0.363,7.42,0.663,11.127,1.029c0.969,0.096,1.939,0.169,2.906,0.275
		C44.912,69.741,45.379,69.712,45.473,70.276z"/>
	<path fill-rule="evenodd" clip-rule="evenodd" fill="#52CD63" d="M33.227,20.631c0.274-0.236,0.124-0.559,0.17-0.841
		c0.977-0.298,1.927,0.045,2.877,0.155c4.422,0.517,8.838,1.086,13.26,1.611c0.369,0.044,0.717,0.102,0.964,0.414
		c-0.188,1.835-0.474,3.651-1.031,5.417c-1.938-1.097-3.919-2.084-6.099-2.638c-3.189-0.81-6.372-0.817-9.564-0.047
		c-0.242,0.059-0.489,0.099-0.733,0.146c-0.004-0.623-0.007-1.247-0.011-1.871c0.338-0.647,0.086-1.345,0.165-2.014
		C33.226,20.854,33.227,20.742,33.227,20.631z"/>
	<path fill-rule="evenodd" clip-rule="evenodd" fill="#59D16B" d="M33.727,17.774c0.003-0.39,0.006-0.779,0.008-1.169
		c1.09,0.362,2.237,0.339,3.356,0.495c2.027,0.281,4.059,0.529,6.09,0.78c1.593,0.197,3.188,0.379,4.781,0.568
		c0.961,0.114,1.923,0.23,2.885,0.346c-0.007,0.222-0.014,0.442-0.021,0.664c-0.108,0.854-0.729,0.772-1.315,0.695
		c-2.243-0.293-4.493-0.531-6.737-0.82c-2.659-0.342-5.321-0.663-7.982-0.984C34.378,18.299,33.867,18.36,33.727,17.774z"/>
	<path fill-rule="evenodd" clip-rule="evenodd" fill="#56CF67" d="M33.727,17.774c0.631,0.541,1.444,0.373,2.159,0.469
		c3.46,0.463,6.935,0.813,10.401,1.223c1.1,0.129,2.191,0.328,3.289,0.472c0.488,0.063,1.013,0.145,1.251-0.479
		c-0.057,0.558-0.112,1.114-0.169,1.672c-0.977,0.308-1.929-0.05-2.874-0.163c-4.364-0.521-8.726-1.06-13.087-1.6
		c-0.412-0.051-0.843-0.05-1.138-0.418c0.001-0.391,0.002-0.781,0.004-1.172C33.617,17.777,33.672,17.776,33.727,17.774z"/>
	<path fill-rule="evenodd" clip-rule="evenodd" fill="#54CE65" d="M33.559,18.95c2.771,0.337,5.542,0.661,8.311,1.015
		c2.932,0.374,5.859,0.776,8.789,1.166c-0.053,0.28-0.106,0.56-0.16,0.84c-1.726-0.224-3.451-0.45-5.178-0.67
		c-2.11-0.269-4.222-0.531-6.332-0.794c-1.481-0.185-2.961-0.386-4.447-0.534c-0.389-0.039-0.768-0.091-1.145-0.183
		c0-0.279,0-0.559-0.001-0.838C33.45,18.951,33.504,18.951,33.559,18.95z"/>
	<path fill-rule="evenodd" clip-rule="evenodd" fill="#E9ACCB" d="M47.789,51.662c1.547,0.141,2.99-0.088,4.186-1.187
		c0.775,0.094,1.513,0.312,2.217,0.648c0.971,0.898,0.938,1.31-0.177,2.206c-1.968,0.729-3.913,0.734-5.831-0.178
		C47.355,52.67,47.269,52.341,47.789,51.662z"/>
	<path fill-rule="evenodd" clip-rule="evenodd" fill="#E9ACCB" d="M22.491,52.327c-0.227-0.151-0.462-0.294-0.68-0.458
		c-0.797-0.6-0.84-1.156-0.158-1.917c0.623-0.388,1.358-0.404,2.035-0.615c0.222-0.082,0.374,0.064,0.517,0.183
		c1.035,0.862,2.219,1.206,3.554,1.044c0.111-0.014,0.22,0.007,0.326,0.046c0.372,0.341,0.633,0.705,0.251,1.203
		c-0.504,0.727-1.261,0.957-2.082,1.017c-0.581,0.042-1.166,0.021-1.749,0.027C23.833,52.681,23.162,52.504,22.491,52.327z"/>
	<path fill-rule="evenodd" clip-rule="evenodd" fill="#FED959" d="M47.789,51.662c-0.358,0.626-0.008,1.065,0.395,1.49
		c-1.805,0.009-3.587-0.242-5.374-0.451c-0.413-0.049-0.834-0.029-1.252-0.04c-0.32-0.008-0.604-0.09-0.797-0.37
		c0.075-0.494,0.288-0.934,0.537-1.36c0.779-0.423,1.574-0.072,2.354-0.021c1.066,0.07,2.149,0.056,3.183,0.401
		C47.153,51.428,47.471,51.545,47.789,51.662z"/>
	<path fill-rule="evenodd" clip-rule="evenodd" fill="#FED858" d="M28.335,51.813c0.111-0.431-0.101-0.777-0.291-1.131
		c0.489-0.479,1.052-0.791,1.758-0.784c1.181,0.324,2.41,0.253,3.606,0.44c0.335,0.618,0.514,1.32,0.99,1.865
		c-1.24,0.385-2.469-0.039-3.691-0.12C29.928,52.031,29.094,52.153,28.335,51.813z"/>
	<path fill-rule="evenodd" clip-rule="evenodd" fill="#020101" d="M34.399,52.203c-0.494-0.473-1.221-0.83-0.87-1.729
		c0.521-0.601,0.848-0.049,1.144,0.241c0.959,0.941,2.105,1.303,3.417,1.207c0.736-0.053,1.386-0.346,2.015-0.726
		c0.354-0.214,0.773-0.547,1.143,0.019c0.246,0.543-0.276,0.739-0.486,1.075C38.623,53.521,36.502,53.507,34.399,52.203z"/>
	<path fill-rule="evenodd" clip-rule="evenodd" fill="#FEDB5E" d="M44.634,45.959c-0.252,0.948-0.192,1.896-0.006,2.846
		c-0.383,0.32-0.839,0.268-1.278,0.225c-3.684-0.361-7.37-0.694-11.058-1.002c-0.362-0.029-0.719-0.094-1.036-0.292
		c-0.041-0.037-0.108-0.076-0.108-0.119c-0.013-0.999-0.234-1.989-0.145-2.993c1.939-0.02,3.853,0.269,5.774,0.462
		c1.483,0.148,2.978,0.195,4.455,0.382C42.367,45.61,43.557,45.418,44.634,45.959z"/>
	<path fill-rule="evenodd" clip-rule="evenodd" fill="#FEFEFE" d="M31.003,44.623c0.321,0.984,0.462,1.982,0.223,3.009
		c-0.025,1.094-0.581,1.834-1.541,2.304c-0.536,0.272-1.041,0.612-1.64,0.746c-1.72,0.418-3.136-0.148-4.357-1.345
		c-0.532-0.712-1.021-1.444-1.064-2.376c-0.043-0.98,0.119-1.92,0.565-2.801c0.879-1.149,1.955-1.968,3.462-2.063
		C28.665,41.968,30.031,42.955,31.003,44.623z"/>
	<path fill-rule="evenodd" clip-rule="evenodd" fill="#FECC45" d="M23.331,69.433c0.557-0.806,1.413-1.338,1.958-2.16
		c0.213-0.322,0.435-0.05,0.61,0.12c0.879,0.853,1.741,1.72,2.468,2.71c-1.56,0.055-3.096-0.205-4.642-0.333
		C23.497,69.75,23.356,69.669,23.331,69.433z"/>
	<path fill-rule="evenodd" clip-rule="evenodd" fill="#FECE49" d="M49.163,66.42c-0.401,0.868-1.181,1.387-1.85,2.008
		c-1.2,0.292-2.381-0.056-3.56-0.16c-3.442-0.307-6.885-0.604-10.323-0.947c-1.856-0.186-3.731-0.207-5.568-0.572
		c-0.917-1.114-0.921-1.118-0.045-2.194c0.151-0.187,0.362-0.326,0.545-0.486c2.473,0.193,4.94,0.449,7.41,0.668
		c3.387,0.301,6.771,0.625,10.159,0.918c0.777,0.066,1.552,0.17,2.332,0.216C48.623,65.89,49.076,65.894,49.163,66.42z"/>
	<path fill-rule="evenodd" clip-rule="evenodd" fill="#FED14C" d="M31.041,61.213c0.642,0.334,1.365,0.219,2.039,0.299
		c2.167,0.26,4.354,0.353,6.529,0.55c2.117,0.192,4.229,0.444,6.346,0.646c0.34,0.032,0.727,0.152,1.029-0.155
		c0.845,0.5,1.191,1.493,2.003,2.025c-0.143,0.548-0.615,0.403-0.958,0.401c-1.7-0.012-3.385-0.263-5.076-0.403
		c-3.384-0.281-6.76-0.649-10.145-0.928c-0.722-0.059-1.439-0.154-2.162-0.204c-0.436-0.03-0.91-0.117-0.943-0.722
		C30.16,62.229,30.461,61.598,31.041,61.213z"/>
	<path fill-rule="evenodd" clip-rule="evenodd" fill="#FECD46" d="M27.863,66.748c0.96-0.309,1.916,0.027,2.868,0.062
		c1.599,0.059,3.191,0.288,4.786,0.443c2.2,0.215,4.4,0.432,6.601,0.642c1.35,0.128,2.698,0.264,4.051,0.353
		c0.393,0.026,0.768,0.092,1.145,0.181c-0.544,0.686-1.163,1.297-1.841,1.849c-0.854-0.611-1.868-0.364-2.803-0.485
		c-2.191-0.283-4.396-0.457-6.598-0.662c-1.433-0.134-2.867-0.245-4.3-0.366c-0.689-0.058-1.378-0.111-2.067-0.168
		C29.022,68.048,28.406,67.435,27.863,66.748z"/>
	<path fill-rule="evenodd" clip-rule="evenodd" fill="#FED04B" d="M29.702,62.722c0.196,0.356,0.529,0.473,0.903,0.504
		c2.728,0.227,5.457,0.43,8.182,0.681c2.722,0.25,5.439,0.572,8.163,0.806c0.668,0.057,1.379,0.197,2.037-0.135
		c0.103,0.123,0.205,0.247,0.31,0.368c0.693,0.81,0.693,0.809-0.133,1.475c-0.953-0.608-2.054-0.347-3.079-0.482
		c-2.279-0.3-4.577-0.466-6.868-0.673c-1.465-0.132-2.932-0.235-4.398-0.36c-1.962-0.167-3.924-0.338-5.885-0.52
		c-0.219-0.021-0.43-0.123-0.57-0.317C28.74,63.55,29.191,63.106,29.702,62.722z"/>
	<path fill-rule="evenodd" clip-rule="evenodd" fill="#FED14C" d="M22.154,60.715c0.872-0.457,1.753-0.04,2.615,0.024
		c1.203,0.09,2.442,0.003,3.597,0.479c-0.783,0.864-1.576,1.719-2.343,2.596c-0.344,0.394-0.609,0.472-0.998,0.032
		C24.089,62.783,23.114,61.756,22.154,60.715z"/>
	<path fill-rule="evenodd" clip-rule="evenodd" fill="#FED95A" d="M29.685,49.936c0.689-0.65,1.222-1.406,1.541-2.304
		c2.781,0.276,5.557,0.616,8.344,0.806c1.687,0.115,3.361,0.414,5.059,0.367c0.387,1.144,1.278,1.842,2.207,2.507
		c-1.433,0.056-2.849-0.121-4.268-0.291c-0.434-0.051-0.937-0.233-1.32,0.195c-0.36-0.203-0.656-0.102-0.995,0.118
		c-2.068,1.346-4.189,1.11-5.855-0.644c-0.266-0.28-0.513-0.406-0.868-0.216c-1.099,0.132-2.174-0.193-3.268-0.162
		C29.982,50.32,29.793,50.188,29.685,49.936z"/>
	<path fill-rule="evenodd" clip-rule="evenodd" d="M48.773,50.175c-1.565-0.015-2.806-1.267-2.801-2.827
		c0.004-1.566,1.349-2.887,2.901-2.851c1.54,0.036,2.805,1.331,2.801,2.866C51.67,48.961,50.401,50.189,48.773,50.175z"/>
	<path fill-rule="evenodd" clip-rule="evenodd" d="M24.142,46.462c-0.009-1.569,1.224-2.84,2.771-2.856
		c1.596-0.017,2.917,1.253,2.931,2.816c0.013,1.537-1.344,2.893-2.888,2.883C25.422,49.296,24.151,48.012,24.142,46.462z"/>
	<path fill-rule="evenodd" clip-rule="evenodd" fill="#FBFBFB" d="M47.733,45.618c0.651,0.007,1.164,0.518,1.173,1.167
		c0.009,0.696-0.517,1.22-1.215,1.209c-0.647-0.01-1.176-0.529-1.188-1.166C46.493,46.162,47.054,45.61,47.733,45.618z"/>
	<path fill-rule="evenodd" clip-rule="evenodd" fill="#FCFCFC" d="M27.048,45.857c0.02,0.687-0.511,1.24-1.19,1.241
		c-0.631,0-1.166-0.527-1.186-1.169c-0.021-0.688,0.509-1.235,1.194-1.232C26.525,44.701,27.028,45.195,27.048,45.857z"/>
</g>
</svg>
