<svg xmlns="http://www.w3.org/2000/svg" xmlns:xlink="http://www.w3.org/1999/xlink" x="0px" y="0px" width="80px" height="80px" viewBox="460 460 80 80" enable-background="new 460 460 80 80" xml:space="preserve">
	<g>
		<path fill="#07B6D5" d="M499.13,476.035c-14.052,0.446-18.229,10.485-19.186,15.923c1.247-2.016,5.177-6.438,10.963-6.438
			c6.743,0,11.877,7.526,15.009,9.875c3.806,2.854,11.453,6.623,21.491,3.567c8.006-2.437,11.719-10.935,12.53-14.966
			c-3.871,5.264-9.745,8.426-17.011,4.698C517.924,486.128,514.183,475.557,499.13,476.035z"/>
		<path fill="#07B6D5" d="M479.248,499.919c-14.052,0.446-18.229,10.485-19.186,15.923c1.247-2.016,5.177-6.439,10.963-6.439
			c6.743,0,11.876,7.527,15.009,9.876c3.805,2.854,11.452,6.624,21.491,3.567c8.005-2.436,11.718-10.934,12.529-14.966
			c-3.871,5.264-9.745,8.427-17.011,4.699C498.043,510.012,494.301,499.44,479.248,499.919z"/>
	</g>
</svg>
