<?xml version="1.0" encoding="utf-8"?>
<!-- Generator: Adobe Illustrator 16.0.0, SVG Export Plug-In . SVG Version: 6.00 Build 0)  -->
<!DOCTYPE svg PUBLIC "-//W3C//DTD SVG 1.1//EN" "http://www.w3.org/Graphics/SVG/1.1/DTD/svg11.dtd">
<svg version="1.1" id="Layer_1" xmlns="http://www.w3.org/2000/svg" xmlns:xlink="http://www.w3.org/1999/xlink" x="0px" y="0px"
	 width="80px" height="80px" viewBox="60 60 80 80" enable-background="new 60 60 80 80" xml:space="preserve">
<g>
	<path fill="#35495E" d="M121.457,60.478v42.403c0,11.851-9.605,21.457-21.457,21.457c-11.851,0-21.458-9.606-21.458-21.457V60.478
		h15.18v42.403c-0.001,3.467,2.808,6.278,6.274,6.279c3.468,0.002,6.278-2.807,6.28-6.273c0-0.003,0-0.005,0-0.006V60.478H121.457z"
		/>
	<path fill="#41B883" d="M136.636,60.478v42.403c0,20.234-16.401,36.642-36.636,36.642s-36.637-16.407-36.637-36.642V60.478h15.179
		v42.403c0,11.851,9.607,21.457,21.458,21.457c11.851,0,21.457-9.606,21.457-21.457V60.478H136.636z"/>
</g>
</svg>
